<?xml version="1.0" encoding="UTF-8"?>
<svg xmlns="http://www.w3.org/2000/svg" width="300px" height="72px" viewBox="0 0 418 101" fill="none">
  <rect width="13.5863" height="136.474" transform="matrix(1 0 -0.672532 0.740068 91.7832 0)" fill="#050917"></rect>
  <rect width="13.5863" height="72.337" transform="matrix(1 0 -0.678582 0.734525 153.249 0)" fill="#050917"></rect>
  <path d="M91.9346 0H105.521V63.6132L91.9346 78.9681V0Z" fill="#050917"></path>
  <rect width="13.5863" height="65.0053" transform="matrix(1 0 0.672532 0.740068 104.162 52.7957)" fill="#050917"></rect>
  <path d="M186.914 46.0413C191.509 46.0413 195.219 44.0577 197.046 40.573L197.545 45.398H199.594V28.3496C199.594 21.7018 195.053 19.0213 189.35 19.0213C183.093 19.0213 178.885 22.2379 178.885 27.2774H181.432C181.432 23.5246 184.366 21.2729 189.294 21.2729C193.503 21.2729 197.046 22.9349 197.046 28.7249V29.6899L187.91 30.3869C181.709 30.8694 177.943 33.8716 177.943 38.5894C177.943 42.9855 181.21 46.0413 186.914 46.0413ZM187.246 43.8433C183.259 43.8433 180.49 42.0741 180.49 38.5358C180.49 35.3727 182.761 32.853 188.132 32.4241L197.046 31.7271V33.121C197.046 39.4472 193.503 43.8433 187.246 43.8433Z" fill="#050917"></path>
  <path d="M210.211 45.398V32.1024C210.211 25.6155 213.588 21.2729 219.624 21.2729C224.441 21.2729 227.486 23.4174 227.486 30.226V45.398H230.033V29.7435C230.033 23.3102 227.21 19.0213 219.679 19.0213C215.692 19.0213 212.038 21.0585 210.266 24.6504L209.712 19.6646H207.663V45.398H210.211Z" fill="#050917"></path>
  <path d="M236.113 31.7271C236.113 38.5358 240.599 44.433 248.24 44.433C253.057 44.433 256.988 42.0205 258.816 37.8924V44.8619C258.816 50.7055 254.884 54.6191 249.015 54.6191C243.921 54.6191 240.322 51.9922 239.325 47.4888H236.833C237.941 53.3861 242.537 56.8708 248.96 56.8708C256.379 56.8708 261.307 52.0458 261.307 44.8619V19.6646H259.259L258.926 25.6691C257.155 21.3802 253.445 19.0213 248.517 19.0213C240.654 19.0213 236.113 24.9185 236.113 31.7271ZM238.716 31.7271C238.716 26.098 242.204 21.2729 248.517 21.2729C254.884 21.2729 258.373 25.7227 258.373 31.6735C258.373 37.7316 254.718 42.1813 248.406 42.1813C242.26 42.1813 238.716 37.4099 238.716 31.7271Z" fill="#050917"></path>
  <path d="M280.537 46.0413C286.517 46.0413 290.338 43.3072 291.888 37.9997H289.286C288.234 41.8061 285.244 43.7897 280.537 43.7897C274.28 43.7897 270.515 39.608 270.294 32.5849H291.888V30.8694C291.888 23.8463 287.126 19.0213 280.205 19.0213C272.785 19.0213 267.746 24.5432 267.746 32.5849C267.746 40.6802 272.841 46.0413 280.537 46.0413ZM280.205 21.2729C285.687 21.2729 289.286 24.9721 289.286 30.5477H270.349C270.958 24.9185 274.779 21.2729 280.205 21.2729Z" fill="#050917"></path>
  <path d="M301.059 45.398V6.69067H298.512V45.398H301.059Z" fill="#050917"></path>
  <path d="M307.707 32.5313C307.707 40.3049 313.299 46.0413 320.885 46.0413C328.471 46.0413 334.064 40.3049 334.064 32.5313C334.064 24.7577 328.471 19.0213 320.885 19.0213C313.299 19.0213 307.707 24.7577 307.707 32.5313ZM310.309 32.5313C310.309 25.9371 314.684 21.2729 320.885 21.2729C327.087 21.2729 331.461 25.9371 331.461 32.5313C331.461 39.1255 327.087 43.7897 320.885 43.7897C314.684 43.7897 310.309 39.1255 310.309 32.5313Z" fill="#050917"></path>
  <path d="M180.458 92.9859V84.4403L186.089 78.3443L195.164 92.9859H198.061L187.783 76.5782L197.952 65.6398H194.726L180.458 80.965V51.8528H177.943V92.9859H180.458Z" fill="#050917"></path>
  <path d="M212.622 93.6696C218.526 93.6696 222.298 90.764 223.829 85.1239H221.259C220.221 89.1689 217.269 91.2768 212.622 91.2768C206.445 91.2768 202.727 86.833 202.509 79.3698H223.829V77.5468C223.829 70.0835 219.127 64.9561 212.294 64.9561C204.969 64.9561 199.994 70.8242 199.994 79.3698C199.994 87.9725 205.023 93.6696 212.622 93.6696ZM212.294 67.3489C217.706 67.3489 221.259 71.2799 221.259 77.2049H202.563C203.165 71.223 206.937 67.3489 212.294 67.3489Z" fill="#050917"></path>
  <path d="M231.407 57.265C232.61 57.265 233.703 56.1826 233.703 54.9292C233.703 53.6189 232.61 52.4795 231.407 52.4795C230.15 52.4795 229.111 53.6189 229.111 54.9292C229.111 56.1826 230.15 57.265 231.407 57.265ZM230.15 92.9859H232.664V65.6398H230.15V92.9859Z" fill="#050917"></path>
  <path d="M253.506 65.241C252.631 65.0131 252.03 64.9561 251.21 64.9561C247.492 64.9561 244.595 66.9501 243.556 70.0266L243.338 65.6398H240.987V92.9859H243.502V76.3504C243.502 71.223 246.672 67.5198 251.538 67.5198H253.506V65.241Z" fill="#050917"></path>
  <path d="M256.414 85.5797C256.414 90.5362 259.967 93.6696 265.543 93.6696C271.283 93.6696 275.11 90.5362 275.11 85.8645C275.11 82.0475 273.087 79.8256 268.495 78.5722L264.122 77.3758C260.951 76.5213 259.421 74.8691 259.421 72.5333C259.421 69.172 261.717 67.3489 265.926 67.3489C269.862 67.3489 272.267 69.3999 272.431 72.9321H274.891C274.727 67.9756 271.338 64.9561 265.926 64.9561C260.514 64.9561 256.906 67.9756 256.906 72.5333C256.906 75.8946 259.038 78.5153 263.521 79.7117L267.949 80.908C271.338 81.8196 272.595 83.1869 272.595 85.8645C272.595 89.2258 269.862 91.2768 265.434 91.2768C261.389 91.2768 258.874 89.1119 258.874 85.5797H256.414Z" fill="#050917"></path>
  <path d="M292.487 93.6696C298.391 93.6696 302.163 90.764 303.694 85.1239H301.125C300.086 89.1689 297.134 91.2768 292.487 91.2768C286.31 91.2768 282.593 86.833 282.374 79.3698H303.694V77.5468C303.694 70.0835 298.993 64.9561 292.159 64.9561C284.834 64.9561 279.859 70.8242 279.859 79.3698C279.859 87.9725 284.889 93.6696 292.487 93.6696ZM292.159 67.3489C297.571 67.3489 301.125 71.2799 301.125 77.2049H282.429C283.03 71.223 286.802 67.3489 292.159 67.3489Z" fill="#050917"></path>
  <path d="M312.038 92.9859L312.42 86.833C314.388 91.5047 318.16 93.6696 322.698 93.6696C330.406 93.6696 334.779 87.4027 334.779 79.3129C334.779 71.223 330.406 64.9561 322.698 64.9561C318.051 64.9561 314.443 67.121 312.53 71.5648V51.8528H310.015V92.9859H312.038ZM312.584 79.3129C312.584 72.4193 316.138 67.3489 322.424 67.3489C328.657 67.3489 332.21 72.4193 332.21 79.3129C332.21 86.2633 328.657 91.2768 322.424 91.2768C316.138 91.2768 312.584 86.2633 312.584 79.3129Z" fill="#050917"></path>
  <path d="M342.396 57.265C343.599 57.265 344.692 56.1826 344.692 54.9292C344.692 53.6189 343.599 52.4795 342.396 52.4795C341.139 52.4795 340.1 53.6189 340.1 54.9292C340.1 56.1826 341.139 57.265 342.396 57.265ZM341.139 92.9859H343.654V65.6398H341.139V92.9859Z" fill="#050917"></path>
  <path d="M354.71 92.9859V51.8528H352.195V92.9859H354.71Z" fill="#050917"></path>
  <path d="M361.273 79.4268C361.273 87.9725 366.193 93.6696 373.409 93.6696C378.985 93.6696 383.468 90.2513 384.889 85.0669H382.32C381.117 88.7701 377.618 91.2768 373.409 91.2768C367.56 91.2768 363.733 86.4342 363.733 79.3698C363.733 71.9636 367.887 67.292 373.737 67.292C377.618 67.292 381.117 69.5708 382.21 73.6157H384.78C383.577 68.4314 379.368 64.9561 373.737 64.9561C366.193 64.9561 361.273 70.7672 361.273 79.4268Z" fill="#050917"></path>
  <path d="M393.681 92.9859V84.4403L399.312 78.3443L408.387 92.9859H411.284L401.007 76.5782L411.175 65.6398H407.95L393.681 80.965V51.8528H391.167V92.9859H393.681Z" fill="#050917"></path>
</svg>
